<?xml version="1.0" standalone="no"?>
<!DOCTYPE svg PUBLIC "-//W3C//DTD SVG 20010904//EN"
 "http://www.w3.org/TR/2001/REC-SVG-20010904/DTD/svg10.dtd">
<svg version="1.0" xmlns="http://www.w3.org/2000/svg"
 width="1619.000000pt" height="382.000000pt" viewBox="0 0 1619.000000 382.000000"
 preserveAspectRatio="xMidYMid meet">

<g transform="translate(0.000000,382.000000) scale(0.100000,-0.100000)"
fill="#000000" stroke="none">
<path d="M8271 3810 c-291 -41 -544 -249 -635 -520 -79 -238 -54 -515 65 -717
47 -79 169 -205 244 -252 142 -90 280 -127 470 -125 201 2 347 51 498 165 96
72 222 234 192 246 -5 2 -70 39 -144 82 l-135 78 -37 -57 c-45 -70 -105 -120
-193 -161 -58 -27 -83 -33 -166 -37 -156 -7 -265 34 -365 139 -95 99 -143 243
-131 391 12 146 60 252 155 341 84 79 186 117 310 117 164 0 300 -69 382 -195
l42 -63 122 72 c67 39 132 78 145 87 l23 15 -43 65 c-106 155 -273 269 -462
314 -79 19 -253 27 -337 15z"/>
<path d="M4420 3635 l0 -155 235 0 235 0 0 -630 0 -630 165 0 165 0 0 630 0
630 234 0 234 0 42 108 c24 59 51 128 61 155 l19 47 -695 0 -695 0 0 -155z"/>
<path d="M6355 3773 c-64 -166 -585 -1543 -585 -1547 0 -3 78 -6 174 -6 l174
0 10 28 c5 15 98 268 207 562 108 294 202 547 207 562 6 16 13 26 17 24 4 -3
104 -268 222 -590 l214 -586 177 0 176 0 -79 208 c-43 114 -177 466 -297 782
l-219 575 -195 3 c-179 2 -196 1 -203 -15z"/>
<path d="M10 3650 l0 -130 1698 -2 1697 -3 3 -1558 2 -1557 -1575 0 -1575 0 0
1195 0 1195 665 0 665 0 0 -1140 0 -1140 125 0 125 0 0 1270 0 1270 -913 0
-914 0 -6 -152 c-4 -83 -7 -740 -7 -1460 l0 -1308 1830 0 1830 0 0 1825 0
1825 -1825 0 -1825 0 0 -130z"/>
<path d="M7 3413 c-4 -3 -7 -64 -7 -135 l0 -128 970 0 970 0 2 -1322 3 -1323
125 0 125 0 3 1323 2 1322 370 0 370 0 0 135 0 135 -1463 0 c-805 0 -1467 -3
-1470 -7z"/>
<path d="M9983 3216 c-201 -49 -348 -218 -375 -433 -26 -207 54 -390 216 -495
89 -57 171 -80 296 -81 146 -1 256 30 372 105 l48 30 0 224 0 224 -195 0 -195
0 0 -65 0 -65 125 0 125 0 0 -124 0 -123 -59 -27 c-216 -97 -456 -33 -547 146
-13 25 -29 78 -35 116 -28 171 50 341 189 409 47 23 72 28 152 31 115 5 183
-16 253 -78 25 -22 48 -40 51 -40 4 0 32 17 62 37 l56 37 -56 53 c-62 57 -153
105 -234 122 -68 14 -183 13 -249 -3z"/>
<path d="M12790 3212 c-251 -66 -407 -320 -361 -588 70 -405 574 -563 866
-271 102 102 145 212 145 367 0 149 -45 264 -141 360 -131 131 -323 180 -509
132z m305 -154 c66 -34 129 -100 163 -168 24 -50 27 -66 27 -170 0 -110 -1
-118 -33 -182 -38 -77 -92 -130 -171 -167 -48 -22 -70 -26 -151 -26 -84 0
-102 3 -152 28 -109 53 -176 143 -198 268 -25 135 11 262 99 350 80 80 136
100 266 96 84 -3 108 -7 150 -29z"/>
<path d="M11150 2716 l0 -496 75 0 75 0 0 195 0 195 83 0 82 -1 144 -194 144
-195 89 0 c69 0 87 3 82 13 -4 6 -70 94 -147 195 -76 101 -138 184 -136 186 2
1 23 8 46 14 66 19 132 71 166 131 25 43 31 69 35 131 8 137 -43 232 -156 287
l-57 28 -262 3 -263 3 0 -495z m504 339 c57 -29 79 -64 83 -132 5 -76 -17
-120 -76 -152 -41 -22 -59 -25 -203 -29 l-158 -5 0 173 0 172 158 -4 c132 -3
163 -6 196 -23z"/>
<path d="M14000 2928 c0 -156 5 -323 10 -372 21 -202 133 -318 331 -346 199
-28 377 52 442 198 40 88 47 163 47 495 l0 307 -75 0 -75 0 0 -313 c0 -346 -7
-402 -59 -467 -15 -19 -48 -46 -72 -60 -38 -22 -56 -25 -134 -25 -131 1 -189
35 -237 140 -22 49 -23 60 -26 388 l-3 337 -75 0 -74 0 0 -282z"/>
<path d="M15450 2716 l0 -496 70 0 70 0 0 189 0 189 173 4 c200 5 252 18 323
81 64 57 87 106 92 203 8 142 -42 235 -156 291 l-57 28 -257 3 -258 3 0 -495z
m499 334 c122 -69 104 -254 -28 -299 -19 -6 -98 -11 -182 -11 l-149 0 0 163
c0 90 3 167 8 171 4 4 75 6 157 4 138 -3 154 -5 194 -28z"/>
<path d="M8100 1915 l0 -165 300 0 300 0 0 165 0 165 -300 0 -300 0 0 -165z"/>
<path d="M4740 1425 c-7 -8 -10 -22 -6 -30 5 -13 604 -15 5491 -15 4887 0
5486 2 5491 15 4 8 1 22 -6 30 -11 13 -654 15 -5485 15 -4831 0 -5474 -2
-5485 -15z"/>
<path d="M6832 718 c-39 -39 17 -100 58 -63 34 31 20 75 -25 75 -12 0 -26 -5
-33 -12z"/>
<path d="M9442 718 c-36 -36 8 -92 54 -67 41 22 26 79 -21 79 -12 0 -26 -5
-33 -12z"/>
<path d="M14625 710 c-17 -18 -17 -21 -1 -45 21 -32 51 -32 71 -1 33 49 -30
90 -70 46z"/>
<path d="M5130 366 l0 -236 35 0 35 0 0 105 0 106 123 -3 122 -3 3 -102 3
-103 29 0 30 0 0 235 0 235 -30 0 -29 0 -3 -97 -3 -98 -122 -3 -122 -3 -3 98
-3 98 -32 3 -33 3 0 -235z"/>
<path d="M5826 477 c-27 -67 -71 -173 -97 -235 l-47 -112 38 0 c35 0 38 2 55
48 27 72 27 72 135 72 108 0 108 0 135 -73 16 -44 20 -47 52 -47 29 0 34 3 29
18 -4 9 -46 115 -94 234 l-87 218 -35 0 -35 0 -49 -123z m123 -59 c18 -46 35
-89 38 -95 4 -10 -15 -13 -77 -13 -62 0 -81 3 -77 13 3 6 20 49 38 95 17 45
35 82 39 82 4 0 22 -37 39 -82z"/>
<path d="M6307 593 c-4 -3 -7 -109 -7 -235 l0 -228 35 0 34 0 3 98 3 97 118 3
117 3 0 29 0 30 -120 0 -120 0 0 70 0 70 130 0 130 0 0 35 0 35 -158 0 c-87 0
-162 -3 -165 -7z"/>
<path d="M6830 366 l0 -234 35 -4 35 -4 0 238 0 238 -35 0 -35 0 0 -234z"/>
<path d="M7120 365 l0 -235 35 0 35 0 0 100 0 100 120 0 120 0 0 30 0 30 -120
0 -120 0 0 70 0 70 130 0 130 0 0 35 0 35 -165 0 -165 0 0 -235z"/>
<path d="M7925 581 c-87 -40 -135 -120 -135 -223 0 -107 69 -205 164 -230 l44
-12 -29 -51 c-16 -28 -29 -55 -29 -58 0 -4 17 -7 38 -7 36 0 38 2 57 56 19 53
23 56 79 79 59 24 116 68 116 91 0 6 -11 19 -24 27 -23 15 -25 15 -41 -9 -21
-32 -88 -63 -135 -64 -45 0 -118 37 -144 73 -30 41 -30 173 0 213 35 47 70 67
127 72 59 5 101 -11 148 -55 26 -24 28 -24 54 -7 l26 17 -33 34 c-17 18 -51
42 -73 53 -54 26 -155 27 -210 1z"/>
<path d="M8420 365 l0 -234 165 -3 165 -3 0 33 0 32 -130 0 -130 0 0 75 0 75
115 0 115 0 0 30 0 29 -112 3 -113 3 -3 63 -3 62 131 0 130 0 0 35 0 35 -165
0 -165 0 0 -235z"/>
<path d="M8950 365 l0 -235 155 0 155 0 0 30 0 30 -120 0 -120 0 0 205 0 205
-35 0 -35 0 0 -235z"/>
<path d="M9440 366 l0 -234 35 -4 35 -4 0 238 0 238 -35 0 -35 0 0 -234z"/>
<path d="M9730 365 l0 -235 35 0 35 0 0 63 c1 57 4 66 36 102 l35 40 44 -50
c24 -28 63 -73 87 -102 40 -48 46 -52 87 -53 51 0 59 -14 -78 143 l-94 109
101 101 c56 56 102 106 102 110 0 4 -17 7 -37 7 -36 0 -46 -8 -160 -127 l-122
-128 -1 128 0 127 -35 0 -35 0 0 -235z"/>
<path d="M10810 366 l0 -236 35 0 35 0 0 90 0 90 80 0 c132 0 190 39 197 132
3 41 -1 61 -16 85 -34 54 -71 67 -208 71 l-123 4 0 -236z m257 142 c29 -27 30
-77 4 -109 -17 -21 -29 -24 -105 -28 l-86 -3 0 81 0 81 82 0 c70 0 85 -3 105
-22z"/>
<path d="M11350 365 l0 -235 35 0 35 0 0 90 0 90 43 0 c42 0 43 -1 110 -90 65
-87 68 -90 108 -90 46 0 48 -6 -35 103 -32 43 -57 79 -55 81 2 1 19 8 36 15
46 19 73 67 73 129 0 43 -5 57 -30 85 -38 44 -89 57 -219 57 l-101 0 0 -235z
m258 149 c17 -12 22 -25 22 -59 0 -63 -28 -80 -130 -80 l-75 0 -3 78 -3 77 83
0 c59 0 90 -5 106 -16z"/>
<path d="M11920 365 l0 -235 160 0 160 0 0 30 0 30 -125 0 -125 0 0 75 0 75
110 0 110 0 0 30 0 30 -110 0 -110 0 0 65 0 65 125 0 125 0 0 35 0 35 -160 0
-160 0 0 -235z"/>
<path d="M12450 365 l0 -235 30 0 29 0 3 98 3 97 118 3 117 3 0 29 0 29 -117
3 -118 3 -3 68 -3 67 131 0 130 0 0 35 0 35 -160 0 -160 0 0 -235z"/>
<path d="M13054 563 c-13 -33 -157 -385 -171 -421 -4 -10 4 -13 32 -10 35 3
38 6 59 58 l22 55 106 3 106 3 23 -60 c22 -57 25 -59 61 -63 24 -2 37 0 34 7
-2 5 -45 112 -96 238 l-93 227 -33 0 c-29 0 -36 -5 -50 -37z m91 -151 c19 -50
35 -94 35 -97 0 -3 -36 -5 -79 -5 l-79 0 40 100 c22 56 42 99 44 97 2 -1 19
-44 39 -95z"/>
<path d="M13500 365 l0 -235 103 -1 c186 -2 213 7 248 77 28 58 20 107 -26
149 -32 31 -32 31 -14 54 24 29 25 98 3 130 -31 44 -88 61 -206 61 l-108 0 0
-235z m248 153 c17 -17 15 -68 -5 -90 -13 -14 -31 -18 -95 -18 l-78 0 0 60 0
60 83 0 c51 0 88 -5 95 -12z m-23 -178 c52 -12 79 -44 71 -85 -10 -52 -37 -65
-137 -65 l-89 0 0 80 0 80 58 0 c31 0 75 -5 97 -10z"/>
<path d="M14060 365 l0 -235 35 0 35 0 0 90 0 90 43 0 c44 0 44 -1 108 -89 61
-86 66 -89 107 -93 23 -2 42 -1 42 1 0 2 -29 43 -65 91 -36 48 -65 90 -65 93
0 2 11 8 24 11 13 3 38 22 55 41 27 31 31 43 31 90 0 46 -5 59 -30 88 -38 44
-89 57 -219 57 l-101 0 0 -235z m260 145 c27 -27 27 -90 0 -115 -15 -14 -38
-18 -102 -19 l-83 -1 -3 78 -3 77 86 0 c72 0 88 -3 105 -20z"/>
<path d="M14630 365 l0 -235 30 0 30 0 0 235 0 235 -30 0 -30 0 0 -235z"/>
<path d="M14920 366 l0 -236 35 0 35 0 0 68 c0 65 2 70 35 102 31 30 36 32 47
18 7 -9 48 -56 90 -105 76 -88 77 -89 118 -85 l42 4 -24 27 c-26 27 -152 174
-176 203 -13 16 -5 28 88 128 l102 110 -39 0 c-36 0 -46 -8 -158 -120 l-120
-120 -5 117 -5 118 -32 3 -33 3 0 -235z"/>
<path d="M10370 365 l0 -85 85 0 85 0 0 85 0 85 -85 0 -85 0 0 -85z"/>
</g>
</svg>
